<svg width="30" height="18" viewBox="0 0 30 18" fill="none" xmlns="http://www.w3.org/2000/svg">
<path fill-rule="evenodd" clip-rule="evenodd" d="M29.0702 8.4901C28.8302 8.1601 22.7402 0.600098 15.0002 0.600098C7.26025 0.600098 1.17024 8.1601 0.930244 8.4901C0.690244 8.7901 0.690244 9.2101 0.930244 9.5101C1.17024 9.8401 7.26025 17.4001 15.0002 17.4001C22.7402 17.4001 28.8302 9.8101 29.0702 9.4801C29.3102 9.2101 29.3102 8.7901 29.0702 8.4901ZM15.0002 15.3301C11.5202 15.3301 8.67025 12.4801 8.67025 9.0001C8.67025 5.5201 11.5202 2.6701 15.0002 2.6701C18.4802 2.6701 21.3302 5.5201 21.3302 9.0001C21.3302 12.4801 18.4802 15.3301 15.0002 15.3301ZM2.64024 9.0001C3.54024 7.9801 5.82024 5.6101 8.82024 3.9901C7.71025 5.3701 7.02025 7.1101 7.02025 9.0001C7.02025 10.8901 7.68024 12.6301 8.79025 14.0101C5.82024 12.3601 3.54024 10.0201 2.64024 9.0001ZM21.1802 14.0101C22.2902 12.6301 22.9502 10.8901 22.9502 9.0001C22.9502 7.1101 22.2902 5.3701 21.1802 3.9901C24.1502 5.6401 26.4302 7.9801 27.3602 9.0001C26.4602 10.0201 24.1802 12.3601 21.1802 14.0101Z" fill="#3C4973"/>
<path fill-rule="evenodd" clip-rule="evenodd" d="M14.9999 5.37012C14.8499 5.37012 14.7299 5.40012 14.5799 5.40012C14.8199 5.70012 14.9999 6.09012 14.9999 6.54012C14.9999 7.56012 14.1899 8.37012 13.1699 8.37012C12.5399 8.37012 11.9699 8.04012 11.6699 7.56012C11.4899 8.01012 11.3699 8.49012 11.3699 9.00012C11.3699 11.0101 12.9899 12.6301 14.9999 12.6301C17.0099 12.6301 18.6299 11.0101 18.6299 9.00012C18.6299 6.99012 17.0099 5.37012 14.9999 5.37012Z" fill="#3C4973"/>
</svg>
